<?xml version="1.0" encoding="UTF-8"?>
<svg version="1.1" xmlns="http://www.w3.org/2000/svg" width="500" height="500">
<path d="M0 0 C1.06666397 0.00031723 1.06666397 0.00031723 2.15487671 0.00064087 C23.09564634 0.06216876 43.10236995 3.82644274 63.25 9.375 C63.25 10.035 63.25 10.695 63.25 11.375 C63.80945313 11.44976562 64.36890625 11.52453125 64.9453125 11.6015625 C79.82047625 14.04089803 93.15483496 22.29596468 106.25 29.375 C106.25 30.035 106.25 30.695 106.25 31.375 C107.03375 31.560625 107.8175 31.74625 108.625 31.9375 C113.75470271 33.97169245 117.81931282 37.12498304 122.25 40.375 C123.21164062 41.055625 124.17328125 41.73625 125.1640625 42.4375 C129.90840991 45.81353158 134.2368551 49.13253254 138.25 53.375 C139.735 54.6125 139.735 54.6125 141.25 55.875 C147.1118209 60.75985075 152.51028889 66.3886155 157.25 72.375 C157.25 73.035 157.25 73.695 157.25 74.375 C157.84296875 74.6225 158.4359375 74.87 159.046875 75.125 C161.5843262 76.56468863 162.79044102 78.02651493 164.5 80.375 C165.02078125 81.07625 165.5415625 81.7775 166.078125 82.5 C167.25 84.375 167.25 84.375 167.25 86.375 C167.91 86.375 168.57 86.375 169.25 86.375 C170.9765625 88.67578125 170.9765625 88.67578125 172.875 91.6875 C173.82246094 93.16669922 173.82246094 93.16669922 174.7890625 94.67578125 C176.25 97.375 176.25 97.375 176.25 100.375 C177.24 100.705 178.23 101.035 179.25 101.375 C180.70458984 103.54541016 180.70458984 103.54541016 182.2109375 106.4140625 C182.76273682 107.46263428 183.31453613 108.51120605 183.88305664 109.59155273 C184.45789795 110.71634033 185.03273926 111.84112793 185.625 113 C186.5056311 114.70748413 186.5056311 114.70748413 187.40405273 116.44946289 C190.97982027 123.51121505 194.04411926 130.37588924 196.22265625 137.99609375 C197.07356188 140.79469971 198.06163427 143.32290442 199.20703125 146.00390625 C201.57379139 151.82089133 202.74040211 157.71682069 203.875 163.875 C204.18050781 165.47021484 204.18050781 165.47021484 204.4921875 167.09765625 C204.89343719 169.19392869 205.29051949 171.29100379 205.68310547 173.38891602 C206.21699385 176.20114202 206.78330479 179.00475611 207.359375 181.80859375 C210.3436795 196.67645241 210.27664757 213.36279581 208.25 228.375 C207.92 228.705 207.59 229.035 207.25 229.375 C206.95316676 231.31616128 206.66227277 233.25840516 206.40039062 235.20458984 C205.28229104 243.42068286 203.63937389 251.30678695 201.25 259.25 C201.00096924 260.08700439 200.75193848 260.92400879 200.49536133 261.78637695 C199.17130899 266.03782965 197.68026166 269.61047704 195.25 273.375 C194.816875 274.591875 194.38375 275.80875 193.9375 277.0625 C192.0616936 282.25255501 189.1808692 286.72369018 186.25 291.375 C185.64285156 292.38046875 185.03570312 293.3859375 184.41015625 294.421875 C183.49556641 295.91460937 183.49556641 295.91460937 182.5625 297.4375 C182.00175781 298.35660156 181.44101562 299.27570313 180.86328125 300.22265625 C179.25 302.375 179.25 302.375 176.25 303.375 C176.0025 304.055625 175.755 304.73625 175.5 305.4375 C172.33607546 312.87272268 165.21123876 318.55351098 159.625 324.25 C158.97958252 324.91692871 158.33416504 325.58385742 157.66918945 326.27099609 C154.42089735 329.54145941 151.82700845 332.12991341 147.25 333.375 C147.25 334.035 147.25 334.695 147.25 335.375 C143.13281372 338.63443914 138.98944436 341.15692028 134.2421875 343.3828125 C132.15206137 344.38495242 132.15206137 344.38495242 129.8984375 345.8359375 C124.98503981 348.69121581 119.57153557 350.42313451 114.25 352.375 C113.44949219 352.67792969 112.64898437 352.98085938 111.82421875 353.29296875 C101.6343823 356.96280016 91.0120521 357.70674589 80.265625 357.9921875 C79.02371399 358.02972137 77.78180298 358.06725525 76.5022583 358.10592651 C61.13706411 358.52502897 45.76836746 358.5308133 30.39854813 358.50397491 C27.965477 358.49994279 25.53240817 358.49746521 23.09933472 358.49530029 C4.00215914 358.47575313 -15.09424086 358.42024545 -34.1875 358 C-34.99264038 357.98471252 -35.79778076 357.96942505 -36.62731934 357.95367432 C-57.41915945 357.53601262 -73.14826373 352.94671455 -88.75 338.54296875 C-92.13237966 334.87652205 -94.44819419 330.77447594 -96.75 326.375 C-97.14058594 325.68277344 -97.53117187 324.99054688 -97.93359375 324.27734375 C-103.40198182 314.2018888 -104.23269456 303.19943867 -101.25 292.1875 C-100.76407932 290.57901258 -100.26928216 288.97302902 -99.75 287.375 C-99.09 287.375 -98.43 287.375 -97.75 287.375 C-97.70875 286.570625 -97.6675 285.76625 -97.625 284.9375 C-95.7408237 277.26621076 -91.02360044 272.00926302 -84.58203125 267.6640625 C-82.74086946 266.46550021 -82.74086946 266.46550021 -81.44921875 264.9609375 C-67.60941322 252.04378568 -44.93179892 253.65317098 -27.5625 253.6875 C-2.01545393 254.45761334 -2.01545393 254.45761334 22.39453125 248.1796875 C24.25 247.375 24.25 247.375 26.25 247.375 C26.91 245.725 27.57 244.075 28.25 242.375 C25.59478118 241.01774175 22.9261753 239.6904082 20.25 238.375 C19.46625 237.983125 18.6825 237.59125 17.875 237.1875 C10.5894591 234.93245163 2.58534813 235.24117807 -4.97265625 235.3125 C-5.91701035 235.31628662 -6.86136444 235.32007324 -7.83433533 235.32397461 C-11.81987174 235.34007903 -15.80529949 235.36806461 -19.79077148 235.39550781 C-53.76719466 235.60868441 -53.76719466 235.60868441 -66.0625 232.75 C-66.80540283 232.58032715 -67.54830566 232.4106543 -68.3137207 232.23583984 C-75.22121319 230.50952721 -80.96172082 227.52646722 -86.75 223.375 C-87.41128906 222.91351563 -88.07257813 222.45203125 -88.75390625 221.9765625 C-99.76671049 213.45211 -105.35295664 200.69990979 -107.5 187.26171875 C-108.66948189 173.75785758 -105.26342349 160.74586953 -96.875 150.0625 C-88.10943245 139.64011273 -77.20010962 134.25004293 -64.75 129.375 C-63.96882812 129.00761719 -63.18765625 128.64023438 -62.3828125 128.26171875 C-56.5935834 125.59372883 -50.59948384 124.39223881 -44.375 123.1875 C-43.51318115 123.02040527 -42.6513623 122.85331055 -41.76342773 122.68115234 C-27.25139228 120.03417452 -12.70154061 120.19673242 1.99609375 120.171875 C3.69130504 120.16763393 3.69130504 120.16763393 5.42076302 120.16330719 C11.38524733 120.14840028 17.34970792 120.13911347 23.31420898 120.13476562 C29.47001502 120.12925049 35.62560328 120.10513472 41.7813406 120.07679367 C46.52621612 120.05819401 51.27103844 120.05296342 56.01594734 120.05142975 C58.28656282 120.04840367 60.55717737 120.04037666 62.82775688 120.02724457 C65.99398591 120.01021807 69.1596717 120.01205455 72.32592773 120.01855469 C73.26157562 120.0093399 74.19722351 120.00012512 75.16122437 119.9906311 C80.06474769 120.02221607 83.23413377 120.26152466 87.25 123.375 C88.24 124.035 89.23 124.695 90.25 125.375 C91.68853434 128.90594792 91.51327796 132.62328903 91.25 136.375 C89.73007896 139.55959646 87.96704041 142.11079966 85.25 144.375 C82.46038361 145.30487213 80.76622628 145.50542933 77.88334656 145.51976013 C76.54441597 145.53010788 76.54441597 145.53010788 75.17843628 145.54066467 C74.20133698 145.54327805 73.22423767 145.54589142 72.2175293 145.54858398 C70.67052589 145.5586145 70.67052589 145.5586145 69.0922699 145.56884766 C66.84804662 145.58291231 64.60380892 145.59480184 62.35956383 145.60479546 C58.79750288 145.62121691 55.23554698 145.64446062 51.67353821 145.66969299 C41.54372418 145.74040021 31.41386494 145.80029935 21.28393555 145.85180664 C15.08826028 145.88378973 8.89270215 145.92512393 2.69712257 145.97200203 C0.34466496 145.9879201 -2.00781965 146.00028811 -4.36031532 146.00890923 C-26.96515345 145.93989415 -26.96515345 145.93989415 -48.75 151.375 C-50.82450932 152.1623234 -52.90044985 152.945749 -54.97705078 153.72753906 C-56.4343084 154.27799423 -57.88977109 154.83322829 -59.34326172 155.39355469 C-64.53174998 157.375 -64.53174998 157.375 -66.75 157.375 C-66.75 158.035 -66.75 158.695 -66.75 159.375 C-67.595625 159.91125 -68.44125 160.4475 -69.3125 161 C-74.69226235 164.41186828 -80.32114056 170.02451361 -81.75 176.375 C-82.17484225 182.64142324 -81.14992755 188.27531567 -79.75 194.375 C-79.09 194.375 -78.43 194.375 -77.75 194.375 C-77.193125 195.2825 -76.63625 196.19 -76.0625 197.125 C-73.33782259 200.95427636 -70.87637314 202.37705253 -66.75 204.375 C-65.87287354 204.86524658 -64.99574707 205.35549316 -64.09204102 205.8605957 C-50.66434255 211.94519016 -32.36940981 209.53344904 -17.97827148 209.33398438 C29.73166312 208.73361099 29.73166312 208.73361099 47.05859375 223.96484375 C48.25 225.375 48.25 225.375 48.25 227.375 C48.91 227.375 49.57 227.375 50.25 227.375 C54.99275943 234.20457357 54.91653482 241.27184097 54.25 249.375 C52.51685324 256.33890898 48.47850213 260.69239717 43.25 265.375 C42.78722656 265.88417969 42.32445312 266.39335937 41.84765625 266.91796875 C30.0227887 277.70201666 9.27065133 279.65546341 -5.8359375 279.68359375 C-8.33854403 279.70874989 -10.84114815 279.73414797 -13.34375 279.75976562 C-17.23599638 279.78845721 -21.12820087 279.81251545 -25.02050781 279.83129883 C-28.81336317 279.85311614 -32.60574817 279.89255695 -36.3984375 279.93359375 C-38.11623917 279.93376747 -38.11623917 279.93376747 -39.8687439 279.9339447 C-50.49771856 280.06228541 -61.31032378 280.6979866 -69.1640625 288.53515625 C-74.05226948 294.20595795 -76.17492993 299.06576529 -76.09765625 306.60546875 C-75.33051744 312.71672058 -72.50352186 317.8163139 -67.9375 321.875 C-67.215625 322.37 -66.49375 322.865 -65.75 323.375 C-65.75 324.035 -65.75 324.695 -65.75 325.375 C-62.68137695 326.66184192 -59.5747159 327.83024733 -56.4375 328.9375 C-55.39142578 329.31068359 -55.39142578 329.31068359 -54.32421875 329.69140625 C-46.73266679 331.70737225 -38.97332326 331.52862148 -31.17797852 331.53613281 C-29.3152404 331.54358017 -29.3152404 331.54358017 -27.41487122 331.55117798 C-24.02586611 331.56323096 -20.63692227 331.57073083 -17.24790311 331.57518864 C-15.12169147 331.578135 -12.99548503 331.58224276 -10.86927605 331.58669281 C-4.19133138 331.60034913 2.48660117 331.61002325 9.16455883 331.6138947 C16.82500516 331.61836227 24.48527189 331.63585723 32.14566368 331.6648953 C38.09763738 331.68665901 44.04956112 331.69660684 50.0015741 331.69793582 C53.54166704 331.698974 57.08159079 331.70466642 60.62164116 331.72275543 C75.12925665 331.79265972 89.08501951 331.78748573 103.25 328.375 C104.50127182 328.07958313 105.75254364 327.78416626 107.04173279 327.47979736 C109.78921967 326.8142573 112.52209947 326.11610592 115.25 325.375 C115.25 324.715 115.25 324.055 115.25 323.375 C115.91386719 323.04886719 116.57773437 322.72273438 117.26171875 322.38671875 C122.8389783 319.62838463 122.8389783 319.62838463 128.25 316.5625 C130.25 315.375 130.25 315.375 132.25 315.375 C132.50136719 314.77429688 132.75273437 314.17359375 133.01171875 313.5546875 C134.41859118 311.07823698 135.71949112 310.08589894 138.0625 308.5 C141.84169159 305.79374345 144.39243127 303.02633783 147.25 299.375 C147.91 298.735625 148.57 298.09625 149.25 297.4375 C151.47570164 295.14224519 153.21107339 292.69787885 155.00390625 290.05859375 C156.25 288.375 156.25 288.375 157.67236328 287.01269531 C166.90494423 277.42864193 172.07665733 262.74789093 176.25 250.375 C176.76585959 249.08030332 177.28282176 247.78604551 177.80078125 246.4921875 C186.35954606 223.7081086 183.67750317 194.76117125 179.25 171.375 C179.03102051 170.12855713 179.03102051 170.12855713 178.80761719 168.85693359 C177.80571393 163.41077001 176.31381208 158.50108002 174.25 153.375 C173.16520254 150.44545263 172.11401074 147.50413375 171.0625 144.5625 C170.65354492 143.43811523 170.65354492 143.43811523 170.23632812 142.29101562 C169.134551 139.20106924 168.25 136.68126699 168.25 133.375 C167.59 133.375 166.93 133.375 166.25 133.375 C165.43208984 131.77785156 165.43208984 131.77785156 164.59765625 130.1484375 C155.7634724 113.06439363 145.77980735 96.51879463 131.85546875 83.03125 C129.25 80.375 129.25 80.375 129.25 78.375 C128.68667969 78.13265625 128.12335938 77.8903125 127.54296875 77.640625 C124.80277068 76.1281477 122.83464926 74.27640703 120.5625 72.125 C116.56346669 68.43495589 112.51325702 65.38780833 107.8671875 62.56640625 C107.33351563 62.17324219 106.79984375 61.78007813 106.25 61.375 C106.25 60.715 106.25 60.055 106.25 59.375 C105.70859375 59.10945313 105.1671875 58.84390625 104.609375 58.5703125 C101.87474418 57.18488695 99.18875859 55.72241542 96.5 54.25 C95.51515625 53.71117187 94.5303125 53.17234375 93.515625 52.6171875 C92.76796875 52.20726562 92.0203125 51.79734375 91.25 51.375 C91.25 50.715 91.25 50.055 91.25 49.375 C90.43789063 49.13265625 89.62578125 48.8903125 88.7890625 48.640625 C85.35358392 47.41204326 82.23392547 45.93521675 78.98071289 44.30273438 C67.16550284 38.3957416 55.04590261 34.54217847 42.25 31.375 C42.25 30.715 42.25 30.055 42.25 29.375 C41.59257812 29.32601562 40.93515625 29.27703125 40.2578125 29.2265625 C35.56547692 28.85778816 30.8864919 28.4734218 26.21875 27.86328125 C1.42099136 24.66741582 -24.94467041 25.18740937 -48.75 33.375 C-51.85309425 34.44067979 -54.9572863 35.5030126 -58.0625 36.5625 C-58.84689453 36.83513672 -59.63128906 37.10777344 -60.43945312 37.38867188 C-61.19806641 37.64583984 -61.95667969 37.90300781 -62.73828125 38.16796875 C-63.41415283 38.4002417 -64.09002441 38.63251465 -64.78637695 38.87182617 C-66.75 39.375 -66.75 39.375 -70.75 39.375 C-70.75 40.035 -70.75 40.695 -70.75 41.375 C-71.28890869 41.62145264 -71.82781738 41.86790527 -72.38305664 42.12182617 C-74.86307354 43.26119278 -77.33774639 44.41174869 -79.8125 45.5625 C-80.66005859 45.94986328 -81.50761719 46.33722656 -82.38085938 46.73632812 C-87.62312225 49.18541619 -92.12255262 51.90586964 -96.75 55.375 C-97.94845843 56.07957298 -99.15705836 56.76716885 -100.375 57.4375 C-103.48751545 59.22431443 -106.00043914 61.08369929 -108.75 63.375 C-109.3378125 63.80941406 -109.925625 64.24382812 -110.53125 64.69140625 C-121.17411561 72.61398718 -131.46695295 81.98861741 -139.75 92.375 C-140.1620166 92.87999023 -140.5740332 93.38498047 -140.99853516 93.90527344 C-146.42156823 100.55555464 -151.52584757 107.10668305 -155.62890625 114.6796875 C-155.99886719 115.23914063 -156.36882812 115.79859375 -156.75 116.375 C-157.41 116.375 -158.07 116.375 -158.75 116.375 C-159.14832031 117.66277344 -159.14832031 117.66277344 -159.5546875 118.9765625 C-160.76023801 122.40410808 -162.22244386 125.51673798 -163.875 128.75 C-164.41382813 129.80960938 -164.95265625 130.86921875 -165.5078125 131.9609375 C-165.91773438 132.75757813 -166.32765625 133.55421875 -166.75 134.375 C-167.41 134.375 -168.07 134.375 -168.75 134.375 C-168.90855469 134.93445313 -169.06710938 135.49390625 -169.23046875 136.0703125 C-171.60813392 144.24107348 -174.32203209 152.34066934 -177.49951172 160.23779297 C-179.58191329 165.48386835 -180.81519805 170.71359462 -181.875 176.25 C-182.04386719 177.08402344 -182.21273437 177.91804687 -182.38671875 178.77734375 C-184.69105645 190.51676492 -184.98982682 202.13429252 -185 214.0625 C-185.00100708 214.88181 -185.00201416 215.70112 -185.00305176 216.54525757 C-184.98528455 237.969639 -183.36921916 259.85761981 -174.83203125 279.7890625 C-173.44202266 283.11103248 -172.21493987 286.48625168 -171 289.875 C-170.57203125 291.0609375 -170.1440625 292.246875 -169.703125 293.46875 C-168.75 296.375 -168.75 296.375 -168.75 298.375 C-168.09 298.375 -167.43 298.375 -166.75 298.375 C-165.41042079 301.16371177 -164.07941565 303.95643062 -162.75 306.75 C-162.3684375 307.5440625 -161.986875 308.338125 -161.59375 309.15625 C-161.2328125 309.91679687 -160.871875 310.67734375 -160.5 311.4609375 C-160.16484375 312.1626709 -159.8296875 312.8644043 -159.484375 313.58740234 C-158.75 315.375 -158.75 315.375 -158.75 317.375 C-158.09 317.375 -157.43 317.375 -156.75 317.375 C-155.27690889 319.47519014 -153.93690365 321.55267729 -152.625 323.75 C-152.06619141 324.65492188 -152.06619141 324.65492188 -151.49609375 325.578125 C-148.75 330.10465316 -148.75 330.10465316 -148.75 332.375 C-148.09 332.375 -147.43 332.375 -146.75 332.375 C-145.27799658 334.36865026 -143.91129641 336.36297102 -142.5625 338.4375 C-139.50538098 343.00228146 -136.44202201 347.02845676 -132.40625 350.7890625 C-130.6682751 352.45325545 -129.16426347 354.21387475 -127.625 356.0625 C-123.41290359 360.96384854 -118.61739902 365.2117051 -113.8359375 369.54296875 C-111.85165564 371.34332212 -109.95473534 373.17141889 -108.05859375 375.0703125 C-106.24262583 376.88320771 -104.45631379 378.4923115 -102.4375 380.0625 C-101.550625 380.825625 -100.66375 381.58875 -99.75 382.375 C-99.75 383.035 -99.75 383.695 -99.75 384.375 C-98.64011719 384.75785156 -98.64011719 384.75785156 -97.5078125 385.1484375 C-94.60476777 386.43959337 -92.91220798 387.81715132 -90.625 390 C-86.4192196 393.86819267 -81.98955379 397.21718708 -77.328125 400.515625 C-75.57960264 401.77668052 -73.86730987 403.08923782 -72.19140625 404.4453125 C-69.37506064 406.67135207 -66.42231468 408.42840701 -63.32421875 410.2265625 C-62.80472656 410.60554688 -62.28523437 410.98453125 -61.75 411.375 C-61.75 412.035 -61.75 412.695 -61.75 413.375 C-61.02425781 413.64699219 -60.29851562 413.91898437 -59.55078125 414.19921875 C-56.83304329 415.34013803 -54.448567 416.65002926 -51.9375 418.1875 C-51.06480469 418.71988281 -50.19210938 419.25226563 -49.29296875 419.80078125 C-47.10833223 421.15317529 -44.92706813 422.51046846 -42.75 423.875 C-41.84229858 424.44190552 -41.84229858 424.44190552 -40.91625977 425.02026367 C-39.45568329 425.93367953 -37.99879196 426.85301123 -36.54541016 427.77783203 C-30.60671984 431.46866048 -24.64010567 434.24239994 -18.125 436.75 C-10.40231808 439.79322139 -2.94694796 443.06673722 4.32666016 447.07568359 C7.67580885 448.88512264 7.67580885 448.88512264 11.390625 449.28125 C13.73818133 448.13706288 15.7605706 446.78588845 17.875 445.25 C18.74640625 444.62609375 19.6178125 444.0021875 20.515625 443.359375 C21.86914062 442.37710938 21.86914062 442.37710938 23.25 441.375 C25.03760097 440.07771244 26.82912255 438.78580575 28.625 437.5 C29.41648437 436.92507813 30.20796875 436.35015625 31.0234375 435.7578125 C33.1529996 434.43524235 34.80034126 433.8112406 37.25 433.375 C37.25 432.715 37.25 432.055 37.25 431.375 C39.49555231 429.91433035 41.73605233 428.57024303 44.0625 427.25 C57.75382918 419.23265655 69.09436511 409.61489195 80.25 398.375 C81.37457689 397.24957705 82.49960811 396.12460797 83.625 395 C84.21796875 394.40703125 84.8109375 393.8140625 85.421875 393.203125 C87.23958333 391.38541667 89.05729167 389.56770833 90.875 387.75 C91.45459473 387.16959961 92.03418945 386.58919922 92.63134766 385.99121094 C94.0061808 384.61845144 95.38896686 383.2536642 96.7734375 381.890625 C98.72111641 379.9122256 100.60771548 377.91062848 102.4765625 375.859375 C103.0334375 375.24835938 103.5903125 374.63734375 104.1640625 374.0078125 C105.31600219 372.74015284 106.46438002 371.46924835 107.609375 370.1953125 C108.16367187 369.58945312 108.71796875 368.98359375 109.2890625 368.359375 C109.78615723 367.80991211 110.28325195 367.26044922 110.79541016 366.69433594 C113.7444726 364.01948978 117.2879932 364.03407184 121.1171875 364.09765625 C124.98361147 364.60043299 127.1330207 366.00609574 130.25 368.375 C132.66507704 372.90326944 132.41438175 376.44876951 131.25 381.375 C129.23047564 385.17318802 126.77360979 388.20928283 123.875 391.375 C122.74964844 392.6125 122.74964844 392.6125 121.6015625 393.875 C119.19974598 396.4284262 116.74011594 398.90772916 114.25 401.375 C113.3528125 402.2721875 112.455625 403.169375 111.53125 404.09375 C103.25 412.375 103.25 412.375 100.64453125 414.9765625 C99.18867342 416.4347953 97.7369866 417.89722921 96.29296875 419.3671875 C88.27902471 427.49923176 79.71171243 434.95559203 70.25 441.375 C69.59 441.375 68.93 441.375 68.25 441.375 C68.25 442.035 68.25 442.695 68.25 443.375 C66.14980986 444.84809111 64.07232271 446.18809635 61.875 447.5 C61.27171875 447.87253906 60.6684375 448.24507813 60.046875 448.62890625 C55.52034684 451.375 55.52034684 451.375 53.25 451.375 C53.25 452.035 53.25 452.695 53.25 453.375 C52.3321875 453.87128906 51.414375 454.36757813 50.46875 454.87890625 C44.08256606 458.39235205 38.26673088 461.8327413 32.9140625 466.84375 C26.47876962 472.76542795 19.04131304 476.56464312 10.25 476.375 C1.93991379 475.2669885 -5.1279646 471.90511911 -12.4609375 468.0625 C-15.12208945 466.69715838 -17.71425948 465.50967505 -20.5 464.4375 C-25.41108331 462.54357639 -30.23936223 460.48091095 -35.0625 458.375 C-35.84012695 458.04250244 -36.61775391 457.71000488 -37.41894531 457.36743164 C-41.72660334 455.47316185 -45.14323676 453.45631751 -48.75 450.375 C-50.57597567 449.47861194 -52.4031016 448.5844219 -54.23828125 447.70703125 C-59.38337176 444.97845292 -64.21730401 441.68822178 -69.07128906 438.4765625 C-70.21052922 437.72899828 -71.35875786 436.99498956 -72.51464844 436.2734375 C-73.95983557 435.35801105 -75.35992904 434.37213297 -76.75 433.375 C-76.75 432.715 -76.75 432.055 -76.75 431.375 C-77.5853125 431.16617187 -78.420625 430.95734375 -79.28125 430.7421875 C-83.65223945 429.0193876 -86.68435608 426.50378488 -90.25 423.5 C-91.52932065 422.43777619 -92.81054538 421.37784105 -94.09375 420.3203125 C-95.01027344 419.56282715 -95.01027344 419.56282715 -95.9453125 418.79003906 C-97.65092428 417.45268437 -99.38881112 416.27593401 -101.21875 415.1171875 C-102.0540625 414.54226563 -102.889375 413.96734375 -103.75 413.375 C-103.75 412.715 -103.75 412.055 -103.75 411.375 C-104.5234375 411.0346875 -104.5234375 411.0346875 -105.3125 410.6875 C-110.42160237 407.93644488 -114.71734958 404.53367075 -118.75 400.375 C-120.50537952 398.84259016 -122.2819017 397.33819167 -124.06640625 395.83984375 C-125.70468477 394.4144274 -127.21501089 392.90998911 -128.75 391.375 C-130.03408393 390.24135268 -131.32625431 389.11682022 -132.625 388 C-137.53252742 383.71934652 -141.96732056 379.22686387 -146.125 374.21875 C-148.23012816 371.8302392 -150.49550729 369.62280282 -152.75 367.375 C-154.47152872 365.55405169 -156.17982737 363.72050904 -157.875 361.875 C-158.72320312 360.9571875 -159.57140625 360.039375 -160.4453125 359.09375 C-163.32788366 355.69329317 -165.34030352 352.60408943 -166.75 348.375 C-167.74 348.045 -168.73 347.715 -169.75 347.375 C-171.15317625 345.18510569 -172.40748224 343.03930945 -173.625 340.75 C-175.66232441 336.97329981 -177.71172193 333.3412609 -180.26171875 329.8828125 C-182.81420458 326.39050335 -184.78898693 322.75484394 -186.6875 318.875 C-187.02523437 318.19155518 -187.36296875 317.50811035 -187.7109375 316.80395508 C-196.75 298.22058059 -196.75 298.22058059 -196.75 292.375 C-197.41 292.375 -198.07 292.375 -198.75 292.375 C-199.88362562 288.43993264 -201.0052722 284.50154244 -202.125 280.5625 C-202.60066406 278.91217773 -202.60066406 278.91217773 -203.0859375 277.22851562 C-204.81853944 271.11026501 -206.25232932 265.06232536 -207.30371094 258.79150391 C-207.7509906 256.14658976 -207.7509906 256.14658976 -208.8046875 252.73046875 C-215.5770923 228.69123022 -215.26494303 192.76735278 -206.75 169.375 C-205.65750054 165.26292784 -204.68614012 161.11953028 -203.69335938 156.98242188 C-202.3140671 151.3406438 -200.67615022 145.85443638 -198.75 140.375 C-198.09 140.375 -197.43 140.375 -196.75 140.375 C-196.57984375 139.08722656 -196.57984375 139.08722656 -196.40625 137.7734375 C-193.94149869 125.00954678 -185.88291468 112.07437203 -178.75 101.375 C-178.09 101.375 -177.43 101.375 -176.75 101.375 C-176.40195313 100.08722656 -176.40195313 100.08722656 -176.046875 98.7734375 C-174.59339542 94.96462053 -172.53748402 92.12798832 -170 89 C-169.08937368 87.85063269 -168.17921523 86.70089453 -167.26953125 85.55078125 C-166.83205566 85.00244629 -166.39458008 84.45411133 -165.94384766 83.88916016 C-164.47383444 82.02473849 -163.07848258 80.11136605 -161.6875 78.1875 C-156.71351857 71.53197371 -151.249872 65.54293101 -144.75 60.375 C-143.07932867 58.37834402 -141.41247014 56.37848966 -139.75 54.375 C-136.25 51.375 -136.25 51.375 -133.75 51.375 C-133.54375 50.7975 -133.3375 50.22 -133.125 49.625 C-131.2442281 46.54737326 -128.765019 45.34084968 -125.75 43.375 C-122.73052478 41.10646198 -119.73928119 38.80422363 -116.75 36.49609375 C-109.50690608 31.375 -109.50690608 31.375 -105.75 31.375 C-105.75 30.715 -105.75 30.055 -105.75 29.375 C-103.14939496 28.03429682 -100.54495084 26.70226646 -97.9375 25.375 C-97.19951172 24.9934375 -96.46152344 24.611875 -95.70117188 24.21875 C-94.98896484 23.8578125 -94.27675781 23.496875 -93.54296875 23.125 C-92.8883667 22.78984375 -92.23376465 22.4546875 -91.55932617 22.109375 C-89.75 21.375 -89.75 21.375 -86.75 21.375 C-86.75 20.715 -86.75 20.055 -86.75 19.375 C-81.5310089 17.32172346 -76.30436757 15.29014137 -71.06982422 13.27685547 C-69.14432046 12.52829612 -67.22893567 11.75376895 -65.31640625 10.97265625 C-53.88966543 6.50752532 -41.80364129 4.4456316 -29.75 2.375 C-28.64624023 2.18518555 -27.54248047 1.99537109 -26.40527344 1.79980469 C-17.59190371 0.40612048 -8.91448614 -0.02476137 0 0 Z " fill="#DBD23D" transform="translate(250.75,18.625)"/>
<path d="M0 0 C5.48094366 -0.049467 10.96175713 -0.0857514 16.44287109 -0.10986328 C18.30715194 -0.11991593 20.17141703 -0.13356005 22.03564453 -0.15087891 C24.71651091 -0.17515953 27.39716866 -0.18649047 30.078125 -0.1953125 C30.91055725 -0.20563507 31.7429895 -0.21595764 32.60064697 -0.22659302 C39.74669236 -0.22797609 39.74669236 -0.22797609 43 2 C42.34 2.66 41.68 3.32 41 4 C40.01 3.67 39.02 3.34 38 3 C38 2.34 38 1.68 38 1 C37.31679688 1.0721875 36.63359375 1.144375 35.9296875 1.21875 C28.4073847 1.91134054 20.92669605 2.13815057 13.375 2.1875 C12.40288574 2.20039063 11.43077148 2.21328125 10.42919922 2.2265625 C9.51154785 2.22785156 8.59389648 2.22914063 7.6484375 2.23046875 C6.82520996 2.23457764 6.00198242 2.23868652 5.15380859 2.24291992 C3 2 3 2 0 0 Z " fill="#E6CA2E" transform="translate(294,139)"/>
<path d="M0 0 C0.66 0 1.32 0 2 0 C2.76797796 2.7329186 3.12805332 5.16777786 3.1328125 8.00390625 C3.13410156 8.74447266 3.13539063 9.48503906 3.13671875 10.24804688 C3.13285156 11.01181641 3.12898438 11.77558594 3.125 12.5625 C3.12886719 13.33013672 3.13273437 14.09777344 3.13671875 14.88867188 C3.130981 18.17927139 3.04747031 20.85758907 2 24 C1.34 24 0.68 24 0 24 C0 16.08 0 8.16 0 0 Z " fill="#EDC21C" transform="translate(457,213)"/>
<path d="M0 0 C0.66 0.33 1.32 0.66 2 1 C0.60493574 4.25042891 -0.96783394 6.07371792 -3.6875 8.3125 C-7.67488712 11.68588729 -11.34923086 15.26948105 -15 19 C-15.97793113 19.98040065 -16.95695713 20.95971147 -17.9375 21.9375 C-18.9584375 22.9584375 -18.9584375 22.9584375 -20 24 C-20 20 -20 20 -18.56640625 18.39453125 C-17.90511719 17.87246094 -17.24382812 17.35039062 -16.5625 16.8125 C-13.28508756 14.10659365 -10.19874048 11.31386756 -7.1875 8.3125 C-6.45917969 7.58675781 -5.73085938 6.86101562 -4.98046875 6.11328125 C-3.15287402 4.16312592 -1.55386652 2.1714917 0 0 Z " fill="#E5C930" transform="translate(348,399)"/>
<path d="M0 0 C0.66 0 1.32 0 2 0 C3.17571451 3.67410785 3.07366746 7.16929183 3 11 C2.01 11.33 1.02 11.66 0 12 C0.020625 10.9275 0.04125 9.855 0.0625 8.75 C0.0136549 5.8192941 -0.256813 3.76040886 -1 1 C-0.67 0.67 -0.34 0.34 0 0 Z " fill="#E6CB30" transform="translate(339,144)"/>
</svg>
